<svg width="18" height="19" viewBox="0 0 18 19" fill="none" xmlns="http://www.w3.org/2000/svg">
<path d="M15.3368 15.6067H12.6698V11.3892C12.6698 10.3835 12.652 9.08887 11.2827 9.08887C9.8936 9.08887 9.68105 10.1846 9.68105 11.316V15.6064H7.01409V6.9336H9.57438V8.11883H9.61024C9.86647 7.67645 10.2367 7.31252 10.6816 7.0658C11.1264 6.81909 11.6292 6.69883 12.1364 6.71783C14.8396 6.71783 15.338 8.51322 15.338 10.8489L15.3368 15.6067ZM4.00472 5.74815C3.14993 5.74829 2.45686 5.04868 2.45672 4.18556C2.45658 3.32244 3.14937 2.62262 4.00416 2.62248C4.85895 2.62226 5.55202 3.32187 5.55216 4.18499C5.55223 4.59948 5.38924 4.99702 5.09904 5.29017C4.80884 5.58331 4.41521 5.74805 4.00472 5.74815ZM5.33827 15.6067H2.66843V6.9336H5.3382V15.6067L5.33827 15.6067ZM16.6665 0.12144H1.32827C0.603351 0.113204 0.00885938 0.699574 0 1.43156V16.9838C0.00857813 17.7162 0.603 18.3031 1.3282 18.2954H16.6665C17.3932 18.3045 17.9899 17.7176 18 16.9838V1.43035C17.9897 0.696947 17.3929 0.110648 16.6665 0.120233" fill="#0A66C2"/>
</svg>
